<svg xmlns="http://www.w3.org/2000/svg" width="400" height="299" viewBox="0 0 400 299" fill="none"><g clip-path="url(#clip0_244_52)"><path d="M53.6767 170.276C53.5287 168.959 53.7744 167.628 54.3827 166.452C54.9909 165.275 55.9343 164.306 57.0932 163.667C58.2521 163.028 59.5745 162.748 60.8926 162.862C62.2107 162.976 63.4653 163.48 64.4973 164.309C65.5292 165.138 66.2922 166.255 66.6894 167.519C67.0866 168.782 67.1002 170.136 66.7284 171.407C66.3567 172.679 65.6163 173.811 64.6011 174.661C63.586 175.51 62.3418 176.039 61.0263 176.18C60.1534 176.295 59.2663 176.232 58.4184 175.995C57.5705 175.757 56.7794 175.351 56.0927 174.799C55.4059 174.247 54.8379 173.562 54.4227 172.785C54.0074 172.007 53.7537 171.154 53.6767 170.276ZM55.5224 170.075C55.8064 172.651 57.8693 174.315 60.7924 173.997C63.7155 173.679 65.3441 171.614 65.0685 169.038C64.7929 166.462 62.7551 164.798 59.8319 165.116C56.9088 165.433 55.2468 167.499 55.5224 170.075ZM67.9582 177.919L68.4176 180.01L60.308 181.8C58.3286 182.235 57.6438 183.556 58.028 185.312C58.0697 185.715 58.2019 186.103 58.4147 186.448C58.6276 186.792 58.9155 187.084 59.257 187.301C59.5985 187.519 59.9846 187.656 60.3865 187.702C60.7883 187.749 61.1955 187.704 61.5775 187.57L69.6787 185.781L70.138 187.871L62.0702 189.653C58.8297 190.363 56.7835 188.356 56.224 185.697C55.6644 183.037 56.675 180.411 59.9071 179.701L67.9582 177.919ZM61.8698 204.965C60.9594 202.523 61.5942 200.14 63.7573 199.337L64.5925 201.478C64.3357 201.596 64.1055 201.765 63.9155 201.974C63.7255 202.183 63.5797 202.429 63.4869 202.696C63.3941 202.963 63.3561 203.246 63.3753 203.528C63.3945 203.811 63.4705 204.086 63.5986 204.338C64.1248 205.743 65.1687 206.253 66.2044 205.868C69.1609 204.765 64.8263 198.994 69.3196 197.313C71.466 196.477 73.437 197.715 74.3306 200.215C75.1658 202.557 74.5895 204.664 72.5684 205.626L71.7332 203.41C72.1833 203.155 72.52 202.739 72.6751 202.245C72.8301 201.751 72.792 201.217 72.5684 200.75C72.1759 199.571 71.2822 198.885 70.0629 199.329C67.3068 200.357 71.4326 206.186 66.9727 207.85C65.2021 208.528 62.8887 207.692 61.8698 204.965ZM78.5065 214.608L76.3434 210.025L72.8858 211.697L74.815 215.77L73.2366 216.515L71.3156 212.442L67.7077 214.156L69.8708 218.731L68.2923 219.483L65.2188 212.969L77.0032 207.382L80.085 213.897L78.5065 214.608ZM81.4798 216.665L82.5655 218.505L75.408 222.728C73.6625 223.757 73.4203 225.237 74.339 226.784C75.2577 228.331 76.6608 228.85 78.4063 227.821L85.5638 223.598L86.6495 225.438L79.5254 229.619C76.6691 231.292 74.0968 230.038 72.7104 227.696C71.324 225.354 71.4994 222.528 74.3807 220.838L81.4798 216.665ZM93.5397 245.501C90.4162 248.01 86.7915 247.433 84.1607 244.179L81.4881 240.834L91.6188 232.638L94.2914 235.984C96.9389 239.245 96.6883 242.967 93.5397 245.501ZM85.5137 243.084C87.4513 245.476 89.8566 245.651 92.1951 243.795C94.5336 241.938 94.9011 239.479 92.9718 237.104L91.6439 235.432L84.2191 241.436L85.5137 243.084ZM100.547 243.293L102.008 244.857L92.5041 253.772L91.0342 252.208L100.547 243.293ZM112.189 254.583L103.37 264.2L101.8 262.787L103.645 251.263L97.0642 258.43L95.494 256.933L104.322 247.315L105.892 248.762L104.055 260.278L110.627 253.119L112.189 254.583ZM116.925 267.479L112.005 263.816L108.606 268.399L106.903 267.119L114.67 256.649L116.39 257.928L113.049 262.419L117.969 266.074L121.309 261.583L123.021 262.862L115.254 273.333L113.584 272.062L116.925 267.479ZM131.031 269.862L126.705 267.228L124.717 270.498L128.617 272.823L127.715 274.311L123.873 271.97L121.794 275.382L126.12 278.024L125.168 279.513L119.021 275.766L125.811 264.61L131.95 268.357L131.031 269.862ZM134.806 269.929L136.693 270.924L130.605 282.465L128.717 281.462L134.806 269.929ZM143.809 274.345C146.64 275.599 147.308 277.84 146.448 279.781C146.113 280.594 145.499 281.261 144.717 281.662C143.935 282.064 143.036 282.173 142.18 281.972L142.949 288.227L140.619 287.19L139.984 281.202L138.489 280.542L136.384 285.317L134.43 284.481L139.7 272.555L143.809 274.345ZM143.108 275.942L140.944 274.98L139.182 278.978L141.337 279.939C142.865 280.617 143.918 280.073 144.444 278.894C144.97 277.715 144.644 276.619 143.124 275.942H143.108ZM152.587 291.765C151.323 291.368 150.205 290.604 149.376 289.57C148.546 288.536 148.042 287.279 147.928 285.957C147.814 284.636 148.094 283.311 148.734 282.149C149.374 280.988 150.344 280.043 151.521 279.435C152.698 278.827 154.029 278.583 155.345 278.734C156.661 278.884 157.902 279.424 158.911 280.282C159.921 281.141 160.652 282.281 161.013 283.557C161.374 284.833 161.348 286.188 160.939 287.449C160.689 288.291 160.273 289.073 159.715 289.749C159.156 290.425 158.467 290.982 157.689 291.385C156.911 291.788 156.059 292.029 155.185 292.094C154.311 292.16 153.433 292.048 152.603 291.765H152.587ZM153.155 290C155.618 290.795 157.974 289.582 158.876 286.772C159.778 283.962 158.55 281.646 156.086 280.851C153.622 280.057 151.284 281.236 150.382 284.046C149.48 286.856 150.708 289.206 153.171 290H153.155ZM180.858 291.271C180.231 295.244 177.141 297.243 173.015 296.59L168.839 295.921L170.877 283.034L175.053 283.703C179.196 284.355 181.501 287.282 180.874 291.271H180.858ZM173.282 294.859C176.323 295.344 178.227 293.856 178.686 290.928C179.145 288.001 177.809 285.911 174.777 285.426L172.681 285.091L171.211 294.566L173.282 294.859ZM191.539 287.157L186.487 286.822L186.236 290.644L190.729 290.937L190.612 292.685L186.128 292.384L185.86 296.373L190.913 296.707L190.805 298.447L183.614 297.978L184.449 284.941L191.64 285.409L191.539 287.157ZM209.279 284.941L211.525 284.79L207.5 298.121L205.036 298.288L199.282 285.601L201.562 285.451L206.122 296.013L209.279 284.941ZM221.806 296.448C220.504 296.683 219.162 296.526 217.949 295.997C216.736 295.467 215.708 294.589 214.994 293.473C214.28 292.358 213.913 291.055 213.94 289.731C213.966 288.406 214.385 287.119 215.142 286.033C215.9 284.947 216.962 284.111 218.195 283.63C219.428 283.149 220.775 283.045 222.067 283.332C223.359 283.619 224.536 284.284 225.45 285.242C226.364 286.199 226.974 287.407 227.202 288.712C227.376 289.573 227.375 290.459 227.199 291.319C227.023 292.179 226.675 292.995 226.177 293.717C225.679 294.44 225.04 295.054 224.299 295.523C223.558 295.992 222.73 296.307 221.865 296.448H221.806ZM221.489 294.617C223.994 294.165 225.548 291.991 225.038 289.089C224.529 286.187 222.358 284.706 219.819 285.158C217.28 285.61 215.743 287.742 216.252 290.644C216.762 293.546 219 295.068 221.547 294.617H221.489ZM230.609 281.01L233.599 291.882L237.85 290.719L238.301 292.392L231.995 294.123L228.555 281.579L230.609 281.01ZM236.455 279.337L245.008 276.268L245.601 277.941L242.335 279.112L246.152 289.749L244.139 290.469L240.322 279.839L237.04 281.018L236.455 279.337ZM259.005 281.336L254.078 283.694L254.353 286.504L252.34 287.449L251.021 273.659L253.259 272.605L263.022 282.44L260.993 283.402L259.005 281.336ZM253.226 275.423L253.869 281.821L257.719 280.015L253.226 275.423Z" fill="#701871"></path><path d="M172.715 9.20427L167.704 10.4671C165.708 8.25089 162.985 7.58185 159.962 8.34289C154.95 9.6057 152.186 14.105 153.589 19.6915C154.992 25.2779 159.544 27.9708 164.572 26.6997C169.165 25.5372 171.345 22.0415 170.894 17.6174L161.381 20.0176L160.546 16.6724L174.552 13.1767L175.387 16.4215C175.753 19.5644 174.95 22.7321 173.133 25.3203C171.315 27.9086 168.61 29.7362 165.532 30.4546C163.832 30.9261 162.055 31.0473 160.307 30.8108C158.559 30.5744 156.877 29.9853 155.363 29.0792C153.849 28.173 152.535 26.9687 151.499 25.5391C150.463 24.1095 149.728 22.4843 149.338 20.7619C148.871 19.0599 148.753 17.2809 148.99 15.5319C149.228 13.7829 149.817 12.1002 150.721 10.5851C151.626 9.07004 152.827 7.75393 154.253 6.71607C155.679 5.67821 157.3 4.94006 159.018 4.54609C164.304 3.21637 169.541 4.73007 172.715 9.20427ZM200.234 20.9877L189.293 21.1634L187.506 26.5408L183.029 26.616L191.966 0.272595L196.926 0.188965L206.706 26.2313L202.196 26.2982L200.234 20.9877ZM194.53 5.4242L190.42 17.6509L198.956 17.5087L194.53 5.4242ZM227.168 3.29164C233.248 4.51263 235.52 8.61886 234.685 12.792C234.376 14.5281 233.462 16.098 232.106 17.2222C230.749 18.3464 229.038 18.9518 227.277 18.9304L231.453 30.8393L226.442 29.8274L222.608 18.3785L219.46 17.7513L217.397 27.9959L213.221 27.1596L218.374 1.51868L227.168 3.29164ZM226.483 6.72046L221.84 5.78381L220.136 14.4061L224.78 15.3427C228.054 16.0034 229.891 14.5064 230.4 11.9473C230.91 9.38826 229.782 7.38114 226.508 6.72046H226.483ZM255.272 34.4772L245.25 30.0699L241.383 34.2514L237.291 32.445L256.4 12.2066L260.943 14.2053L258.989 41.9538L254.863 40.139L255.272 34.4772ZM256.567 17.9436L247.764 27.3687L255.564 30.8059L256.567 17.9436ZM297.34 37.1785L281.714 58.1696L278.273 55.6105L279.592 32.236L267.942 47.8998L264.501 45.3491L280.135 24.3497L283.568 26.9087L282.29 50.2415L293.924 34.6027L297.34 37.1785ZM306.159 45.5833L318.203 59.2484L315.614 61.5733L311.012 56.3548L294.058 71.358L291.218 68.1383L308.181 53.1351L303.545 47.858L306.159 45.5833ZM324.475 68.2554L326.83 71.8431L304.982 86.194L302.635 82.6063L324.475 68.2554ZM320.842 105.471L316.399 95.4351L310.761 95.8867L308.949 91.7888L336.652 89.7232L338.665 94.2643L318.553 113.499L316.724 109.376L320.842 105.471ZM332.918 94.1305L320.082 95.1424L323.548 102.945L332.918 94.1305Z" fill="#701871"></path><path d="M170.983 181.377L202.728 106.549L200.994 104.282H155.644V84.0078H232.205V97.3461L197.392 181.377H170.983ZM155.644 120.021V84.0078H175.651V120.021H155.644Z" fill="#701871"></path><path d="M150.382 220.136C150.382 225.881 146.766 228.942 141.312 228.942H138.364V211.38H141.312C146.766 211.338 150.382 214.399 150.382 220.136ZM200.443 224.71H207.567L204 213.73L200.443 224.71ZM69.0942 120.198C52.0121 110.279 34.9076 100.397 17.7809 90.5512C13.296 87.967 13.3461 87.8583 17.6222 85.1571C28.3292 78.4081 38.9527 71.5086 49.7348 64.8684C53.0755 62.8111 54.5454 60.3608 54.3116 56.3716C53.6017 44.1533 53.1089 31.9099 52.6412 19.6748C52.4742 15.2926 52.7331 15.1421 56.6417 17.375C73.9021 27.2712 91.1346 37.212 108.339 47.1974C110.761 48.6108 112.515 49.5307 114.494 46.4113C116.666 43.0661 114.494 42.0291 112.24 40.7328C98.743 32.9552 85.2132 25.2278 71.7752 17.3164C63.4234 12.4074 54.6624 8.11715 46.7699 2.34668H44.2644C44.515 7.62373 44.7822 12.8924 45.0077 18.1695C45.5339 30.1035 45.9682 42.0374 46.5946 53.9714C46.7291 55.1464 46.505 56.3347 45.9519 57.3797C45.3988 58.4246 44.5426 59.2774 43.4961 59.8255C35.0274 65.136 26.7257 70.7058 18.1735 75.9159C12.1435 79.6375 6.54779 84.0197 0 86.8297V89.3385C8.81948 93.52 16.9792 98.8222 25.4395 103.606C39.0028 111.275 52.4157 119.203 65.9373 126.947C69.42 128.946 71.1989 128.21 72.2679 124.798C73.1866 121.871 70.7729 121.176 69.0942 120.198ZM194.663 272.823C132.476 272.229 77.2706 218.681 78.1142 152.83C78.8909 91.8558 130.981 35.2049 198.221 36.4092C260.291 37.5131 314.887 90.7686 313.275 154.503C315.129 218.078 259.74 273.483 194.663 272.823ZM162.926 220.136C162.926 208.77 155.026 200.525 142.448 200.525H126.003V239.981H142.423C155.001 239.981 162.901 231.392 162.901 220.136H162.926ZM179.739 200.525H167.361V239.981H179.714L179.739 200.525ZM225.498 239.981L211.141 200.525H196.91L182.495 239.981H195.432L197.378 234.018H210.548L212.494 239.981H225.498ZM258.721 227.771C258.721 215.628 240.414 216.464 240.414 211.497C240.38 211.245 240.402 210.988 240.476 210.745C240.55 210.502 240.676 210.278 240.845 210.088C241.014 209.898 241.222 209.747 241.455 209.646C241.687 209.544 241.939 209.493 242.193 209.498C243.529 209.498 244.807 210.217 244.924 212.617H258.237C257.903 204.422 251.781 199.856 242.268 199.856C233.866 199.856 227.185 203.978 227.185 211.89C226.96 225.379 245.559 223.422 245.609 228.775C245.609 230.171 244.44 230.723 243.212 230.723C241.984 230.723 240.431 230.222 240.205 227.328H227.076C227.628 236.184 234.702 240.366 243.713 240.366C253.234 240.366 258.738 235.014 258.738 227.771H258.721ZM305.675 143.748C303.211 119.496 293.916 98.2619 277.63 80.3232C245.542 44.9729 196.317 34.0508 152.487 52.9762C119.673 67.1515 98.6679 92.2238 89.1803 126.654C83.167 148.473 84.52 170.142 91.7944 191.61C93.2142 195.791 95.227 197.163 99.5699 197.146C131.716 196.979 163.879 197.054 196.008 197.054C228.296 197.054 260.584 196.987 292.888 197.138C296.764 197.138 298.492 195.841 299.745 192.212C305.279 176.696 307.304 160.143 305.675 143.748ZM386.069 199.63C368.672 189.427 351.192 179.349 333.854 169.046C330.597 167.114 329.118 168.034 327.841 171.078C326.663 173.888 328.601 174.758 330.463 175.837C347.534 185.772 364.6 195.724 381.659 205.693C386.002 208.202 386.027 208.52 381.776 211.254C371.253 218.037 360.763 224.878 350.123 231.484C346.565 233.701 345.471 236.435 345.747 240.516C346.465 251.062 346.891 261.633 347.233 272.195C347.317 274.704 348.662 278.376 346.398 279.63C344.135 280.885 341.746 277.958 339.525 276.661C323.261 267.256 307.039 257.778 290.859 248.227C288.353 246.755 287.151 247.466 285.94 249.732C284.729 251.999 284.637 253.429 287.126 254.867C308.807 267.406 330.452 280.001 352.061 292.651C354.449 294.04 355.736 293.789 355.644 290.761C355.585 288.679 355.427 286.58 355.335 284.514C354.65 270.197 353.971 255.882 353.297 241.57C353.197 240.597 353.38 239.616 353.825 238.745C354.269 237.874 354.956 237.15 355.802 236.661C370.418 227.228 384.917 217.627 399.958 208.879V208.043C395.365 205.258 390.78 202.373 386.094 199.63H386.069Z" fill="#AF1685"></path></g><defs><clipPath id="clip0_244_52"><rect width="400" height="298.258" fill="white" transform="translate(0 0.188965)"></rect></clipPath></defs></svg>